<?xml version="1.0" encoding="UTF-8" standalone="no"?>
<!-- Created with Inkscape (http://www.inkscape.org/) -->
<svg xmlns:svg="http://www.w3.org/2000/svg" xmlns="http://www.w3.org/2000/svg" xmlns:xlink="http://www.w3.org/1999/xlink" xmlns:dc="http://purl.org/dc/elements/1.1/" xmlns:cc="http://web.resource.org/cc/" xmlns:rdf="http://www.w3.org/1999/02/22-rdf-syntax-ns#" version="1.0" width="750" height="620" id="svg2">
  <defs id="defs5">
    <radialGradient cx="558.72455" cy="1071.2964" r="182.11835" fx="558.72455" fy="1071.2964" id="radialGradient3451" xlink:href="#linearGradient2541" gradientUnits="userSpaceOnUse" gradientTransform="matrix(0.267846,5.983624,-7.096298,0.317665,8006.918,-2570.738)"/>
    <linearGradient id="linearGradient2541">
      <stop style="stop-color:#ffc5a0;stop-opacity:1" offset="0" id="stop2543"/>
      <stop style="stop-color:#cfb079;stop-opacity:0.556701" offset="1" id="stop2545"/>
    </linearGradient>
  </defs>
  <g transform="translate(-170.033,-763.9351)" id="g3436">
    <path d="M 792.49808,1362.9644 C 786.44808,1362.2461 778.34808,1360.8886 774.49808,1359.9476 C 767.18758,1358.1608 753.84428,1357.5271 679.19848,1355.4213 C 646.09028,1354.4873 642.55498,1354.2218 638.98828,1352.4022 C 636.83748,1351.305 633.91248,1350.4072 632.48828,1350.4072 C 629.70748,1350.4072 623.98968,1347.836 622.72688,1346.0177 C 622.30268,1345.4069 622.22188,1343.3844 622.54728,1341.5232 C 623.07008,1338.5332 622.92698,1338.2276 621.31848,1338.899 C 614.06688,1341.9259 598.51508,1346.6872 589.85148,1348.5327 C 574.72358,1351.7553 548.05828,1351.7937 532.27038,1348.6155 C 517.47118,1345.6364 501.52418,1340.0319 486.74808,1332.6169 C 486.33558,1332.4099 485.99808,1334.2246 485.99808,1336.6496 C 485.99808,1341.6962 484.01108,1344.11 477.49808,1346.9752 C 473.92838,1348.5456 469.24938,1348.7558 433.99808,1348.9294 C 394.78048,1349.1225 381.86268,1349.8773 366.49808,1352.8736 C 340.95748,1357.8544 311.02368,1357.693 297.68298,1352.5025 C 296.13468,1351.9001 291.85968,1351.3692 288.18298,1351.3228 C 284.50628,1351.2764 278.79808,1350.8267 275.49808,1350.3234 C 272.19808,1349.8201 268.82308,1349.3583 267.99808,1349.2971 C 255.76718,1348.3905 241.12933,1338.6352 229.02765,1323.3254 C 226.81139,1320.5216 224.99809,1317.4705 224.99809,1316.5453 C 224.99809,1315.62 223.71444,1313.2979 222.14553,1311.385 C 218.90807,1307.4379 212.96336,1295.3603 210.5895,1287.9072 C 209.13246,1283.3326 207.94307,1278.6485 201.82914,1253.4072 C 196.54648,1231.5978 194.40482,1220.4984 191.9885,1202.4072 C 191.36409,1197.7322 190.37259,1192.2464 189.78518,1190.2166 C 188.45305,1185.6133 189.24332,1180.4923 192.20716,1174.522 C 194.3952,1170.1145 194.70907,1169.8936 199.19545,1169.6046 C 205.62924,1169.19 208.46678,1171.8762 207.69258,1177.6483 C 207.39684,1179.8532 207.52601,1182.6134 207.97962,1183.7822 C 208.72698,1185.7078 210.73195,1192.3964 215.43066,1208.6389 C 216.34261,1211.7913 218.6391,1216.2913 220.53396,1218.6389 C 222.42883,1220.9865 224.53715,1223.9888 225.21912,1225.3108 C 225.90108,1226.6327 227.59284,1228.9241 228.97857,1230.4027 C 235.31328,1237.1618 240.92714,1243.403 245.88946,1249.2034 C 248.85204,1252.6663 252.67595,1256.2257 254.38703,1257.1133 C 259.20098,1259.6102 270.92628,1262.3711 276.79778,1262.3901 C 284.75328,1262.4158 287.12728,1260.8012 295.81238,1249.4582 C 298.99488,1245.3017 303.00068,1235.2964 304.84098,1226.9072 C 306.08688,1221.2278 306.36958,1212.1723 306.33948,1178.9072 C 306.30338,1139.0227 305.84108,1128.8846 302.39468,1092.4072 C 299.93458,1066.3686 299.83018,986.77187 302.22858,965.71166 C 303.87588,951.24687 308.14778,934.85755 311.01928,931.98605 C 311.55758,931.44771 311.99808,930.2559 311.99808,929.3376 C 311.99808,927.41608 321.70488,908.08899 326.02568,901.40724 C 327.62628,898.93224 330.25058,894.43224 331.85758,891.40724 C 333.46458,888.38224 335.79388,885.00724 337.03378,883.90724 C 338.27368,882.80724 341.05048,879.65724 343.20448,876.90724 C 345.35838,874.15724 349.68058,869.78243 352.80938,867.18544 C 360.62338,860.69963 387.76158,842.62049 397.49808,837.41444 C 401.89808,835.06179 406.62308,832.36667 407.99808,831.42529 C 409.37308,830.48392 414.77308,827.78357 419.99808,825.42451 C 425.22308,823.06546 429.92558,820.74651 430.44808,820.27129 C 430.97058,819.79606 432.01148,819.40725 432.76108,819.40725 C 433.51078,819.40725 436.90828,818.08487 440.31108,816.46863 C 443.71398,814.85239 448.97308,812.79601 451.99808,811.89888 C 455.02308,811.00176 461.77308,808.77322 466.99808,806.94657 C 484.66668,800.76967 496.29988,798.37517 518.05668,796.43695 C 538.51648,794.61428 549.64148,795.07616 565.69558,798.41477 C 580.72298,801.53985 582.19738,802.05759 587.99808,806.2465 C 599.49618,814.54965 608.66198,829.74814 607.74038,838.98258 L 607.30318,843.36435 L 610.91078,840.1358 C 619.83798,832.14671 631.79568,828.87938 657.99808,827.26965 C 677.17238,826.09169 684.81768,827.17551 698.49808,833.01102 C 702.89808,834.88789 707.01118,836.41985 707.63838,836.41538 C 709.29198,836.40359 722.73578,843.17394 723.49368,844.40014 C 723.84628,844.97072 725.56658,846.07163 727.31638,846.8466 C 729.06628,847.62157 732.90878,850.54038 735.85538,853.33284 C 738.80188,856.1253 742.56368,859.54685 744.21488,860.93629 C 748.69218,864.70363 756.13448,876.56531 761.45098,888.40724 C 764.04368,894.18224 767.87688,902.50724 769.96908,906.90724 C 774.26298,915.93752 776.41858,921.42013 781.49098,936.21284 C 783.43458,941.88093 785.62168,947.50593 786.35108,948.71284 C 787.08058,949.91976 788.46348,953.60724 789.42418,956.90724 C 790.38498,960.20724 791.86448,964.93224 792.71188,967.40724 C 793.55938,969.88224 794.62028,974.38224 795.06938,977.40724 C 795.96448,983.43594 797.15998,988.51102 800.01628,998.40724 C 801.04808,1001.9822 802.82808,1011.6572 803.97178,1019.9072 C 805.11548,1028.1572 806.27398,1035.5319 806.54618,1036.2953 C 807.99638,1040.3618 813.97078,1069.8942 814.55968,1075.9072 C 814.93678,1079.7572 815.66948,1083.7209 816.18788,1084.7153 C 818.21508,1088.6035 820.19768,1125.4366 819.61618,1148.4072 C 819.01048,1172.3343 817.69768,1184.3144 813.47918,1204.4072 C 810.57748,1218.2285 809.01088,1229.6728 808.31278,1242.149 C 807.56058,1255.5902 813.03798,1272.7385 820.72218,1281.0006 C 823.35388,1283.8302 824.27748,1284.1404 831.54868,1284.6364 C 844.69758,1285.5335 846.72668,1284.8565 851.75028,1277.8959 C 861.02318,1265.0474 863.12558,1261.5244 866.58758,1253.0328 C 870.81088,1242.674 872.90038,1239.2594 880.68738,1229.9917 C 893.83268,1214.3468 895.48408,1213.342 900.69228,1217.8191 C 903.37008,1220.1211 903.49308,1220.6112 903.38898,1228.5691 C 903.28108,1236.8217 900.25528,1253.7121 897.32718,1262.4072 C 896.49368,1264.8822 895.20448,1269.8322 894.46228,1273.4072 C 892.38098,1283.4322 889.24048,1296.3797 887.54938,1301.9072 C 886.70808,1304.6572 886.01258,1308.0322 886.00398,1309.4072 C 885.99528,1310.7822 884.59718,1315.7322 882.89718,1320.4072 C 881.19708,1325.0822 879.40088,1330.2487 878.90558,1331.8884 C 878.41028,1333.528 876.74878,1336.678 875.21338,1338.8884 C 873.67788,1341.0987 871.53878,1344.6599 870.45978,1346.802 C 867.68128,1352.3182 862.89178,1357.1579 859.44438,1357.9327 C 857.82388,1358.2969 855.12908,1359.2043 853.45598,1359.9493 C 847.39588,1362.6474 841.15828,1363.4329 822.49808,1363.8478 C 810.44458,1364.1158 799.47638,1363.7928 792.49808,1362.9644 z " style="fill:black" id="path2539"/>
    <path d="M 836.30228,1360.381 C 842.24458,1359.8175 847.86958,1358.9881 848.80228,1358.5379 C 849.73498,1358.0878 851.50448,1357.1992 852.73448,1356.5633 C 853.96448,1355.9275 855.76448,1355.3913 856.73448,1355.3718 C 859.90048,1355.3082 862.90678,1352.9426 865.97978,1348.0971 C 867.63978,1345.4794 868.99808,1343.0921 868.99808,1342.7919 C 868.99808,1342.4918 870.57308,1339.8733 872.49808,1336.9732 C 874.42308,1334.073 876.01238,1330.8468 876.02988,1329.8037 C 876.04738,1328.7606 876.72238,1327.0337 877.52988,1325.9661 C 878.33738,1324.8985 878.99808,1323.076 878.99808,1321.9161 C 878.99808,1320.7562 879.36978,1319.3797 879.82418,1318.8572 C 880.71118,1317.8372 882.16558,1312.9317 883.96018,1304.9072 C 884.57518,1302.1572 885.52468,1298.3322 886.07018,1296.4072 C 886.61578,1294.4822 887.29878,1291.7822 887.58808,1290.4072 C 887.87748,1289.0322 888.57298,1286.1072 889.13368,1283.9072 C 889.69438,1281.7072 890.52008,1277.6572 890.96858,1274.9072 C 891.41708,1272.1572 892.47678,1268.1072 893.32338,1265.9072 C 895.00638,1261.5335 896.84588,1253.7077 898.02428,1245.9072 C 898.43968,1243.1572 899.12438,1239.7822 899.54578,1238.4072 C 899.96718,1237.0322 900.50178,1232.9052 900.73398,1229.2362 C 901.10148,1223.426 900.87978,1222.2889 899.01548,1220.4247 C 896.00458,1217.4138 894.24488,1218.1279 889.19528,1224.4097 C 886.76468,1227.4333 883.11728,1231.7072 881.08998,1233.9072 C 876.41388,1238.9816 872.79298,1245.2497 869.52998,1253.9186 C 866.59598,1261.7134 863.53168,1266.9473 856.07078,1276.9072 C 853.18668,1280.7572 850.47528,1284.532 850.04538,1285.2956 C 849.36938,1286.4961 841.40698,1288.6176 838.49808,1288.3722 C 837.94808,1288.3258 834.34808,1288.0506 830.49808,1287.7606 C 821.05788,1287.0495 818.18978,1284.7726 812.64488,1273.5871 C 806.33548,1260.8596 805.56238,1256.3891 806.34628,1237.1668 C 806.82368,1225.4611 807.72038,1217.6864 809.54788,1209.4072 C 815.37548,1183.0067 817.55238,1158.3696 816.61648,1129.4072 C 815.90298,1107.3277 814.74348,1092.4449 812.99358,1082.9072 C 812.38808,1079.6072 811.52638,1074.4322 811.07848,1071.4072 C 810.63068,1068.3822 809.11068,1060.7322 807.70058,1054.4072 C 802.54578,1031.2847 801.98728,1028.4128 800.57318,1017.7575 C 799.78118,1011.7898 798.38428,1004.2072 797.46898,1000.9072 C 795.47428,993.71516 794.56588,989.86184 792.98988,981.90724 C 792.33598,978.60724 791.11908,973.65724 790.28548,970.90724 C 789.45188,968.15724 788.41538,964.33224 787.98208,962.40724 C 786.96568,957.89201 785.14648,952.80579 782.97478,948.40724 C 782.02438,946.48224 780.25088,941.75724 779.03378,937.90724 C 777.81658,934.05724 776.24268,929.55724 775.53618,927.90724 C 774.82958,926.25724 773.43858,922.65724 772.44508,919.90724 C 770.80758,915.37476 765.03718,902.80413 755.23098,882.40724 C 753.24788,878.28224 749.93278,872.65724 747.86418,869.90724 C 743.54048,864.15941 730.43698,851.94781 725.11338,848.70507 C 719.62658,845.36295 705.99808,838.32476 705.99808,838.83337 C 705.99808,839.08002 703.18558,838.01098 699.74808,836.45773 C 686.21658,830.34349 676.38568,828.96023 655.99808,830.30187 C 641.54698,831.25285 637.26748,831.92204 627.17828,834.80846 C 618.35998,837.33127 609.99808,843.39109 609.99808,847.25877 C 609.99808,848.22044 609.50698,849.49835 608.90678,850.09859 C 608.11828,850.88703 608.80948,852.63508 611.39718,856.39694 C 614.81458,861.36496 617.30658,867.78947 618.77098,875.40724 C 620.43398,884.05824 618.66158,911.15918 616.05678,916.90724 C 614.42548,920.50707 613.81528,932.12892 615.23178,932.61767 C 615.92828,932.85795 625.27308,932.72187 635.99808,932.31526 C 646.72308,931.90865 658.87308,931.52432 662.99808,931.46119 C 667.35598,931.34371 669.95928,930.87081 673.74158,931.5124 C 674.48418,931.63838 675.66778,932.83281 676.89558,933.77599 C 680.29638,936.38831 684.13418,940.6425 688.15258,944.81175 C 690.07568,947.93919 694.78268,955.07842 698.16878,959.41726 C 698.53768,959.69777 698.80798,961.27211 699.51808,962.63087 C 701.39588,966.22433 701.96178,967.81569 703.59738,970.11765 C 705.46698,972.74899 707.03098,975.57728 707.07118,976.40404 C 707.11138,977.2308 708.00638,979.25724 709.06018,980.90724 C 710.11388,982.55724 711.24128,984.58224 711.56548,985.40724 C 711.88968,986.23224 712.79458,988.10167 713.57648,989.56153 C 714.35838,991.02139 714.99808,992.87879 714.99808,993.68909 C 714.99808,994.49938 715.66118,995.71267 716.47158,996.38528 C 717.28198,997.05789 718.23098,999.25049 718.58038,1001.2577 C 719.81848,1008.3698 723.25708,1020.949 724.77178,1023.9072 C 725.61668,1025.5572 726.31328,1027.1322 726.31978,1027.4072 C 726.32638,1027.6822 727.14598,1029.7482 728.14128,1031.9982 C 729.13658,1034.2483 730.43828,1038.5233 731.03398,1041.4982 C 731.62968,1044.4732 732.50228,1047.8072 732.97308,1048.9072 C 734.30598,1052.0213 738.22538,1069.2455 739.11698,1075.9072 C 740.32488,1084.932 740.28258,1110.0402 739.01438,1136.835 C 737.48338,1157.6086 737.88068,1168.1018 734.99808,1192.4166 C 736.82748,1198.1016 730.03488,1210.9622 729.99808,1211.2666 C 729.99808,1212.424 728.23108,1217.1954 726.07148,1221.8699 C 723.91198,1226.5443 721.84598,1231.3899 721.48038,1232.638 C 720.44508,1236.1727 711.87128,1254.6183 709.96728,1257.4072 C 709.02848,1258.7822 707.93588,1260.9518 707.53918,1262.2286 C 705.46328,1268.9101 691.92828,1288.9831 683.57318,1297.7712 C 680.50688,1300.9964 677.99808,1304.0193 677.99808,1304.4888 C 677.99808,1304.9583 671.81058,1309.3862 664.24808,1314.3287 C 656.68558,1319.2711 650.04548,1323.6732 649.49238,1324.1111 C 648.93928,1324.5489 646.46428,1326.0067 643.99238,1327.3505 C 639.49098,1329.7977 627.14458,1338.9649 625.76338,1340.8856 C 624.35378,1342.8457 625.01898,1344.3667 627.94838,1345.8815 C 629.57108,1346.7206 632.07568,1347.4072 633.51418,1347.4072 C 634.95258,1347.4072 637.11248,1347.9697 638.31378,1348.6572 C 641.41768,1350.4335 650.69868,1350.9386 741.99808,1354.3005 C 759.86918,1354.9586 770.77738,1355.8092 775.49808,1356.9127 C 792.22458,1360.823 816.83658,1362.2269 836.30228,1360.381 z " style="fill:#520" id="path2537"/>
    <path d="M 344.99808,1352.4053 C 349.67308,1351.7821 355.29808,1351.1232 357.49808,1350.9412 C 359.69808,1350.7591 364.19808,1350.081 367.49808,1349.4342 C 380.58658,1346.8688 392.14318,1346.2173 431.81638,1345.8082 C 472.08788,1345.3928 473.25338,1345.3254 477.81638,1343.1446 C 482.01218,1341.1394 482.53008,1340.5221 482.80608,1337.1971 C 483.04308,1334.3424 482.60448,1333.0742 480.90398,1331.6971 C 479.68848,1330.7126 476.86318,1328.1761 474.62558,1326.0604 C 472.38808,1323.9446 467.98928,1320.9172 464.85058,1319.3327 C 461.71188,1317.7483 458.85948,1315.9919 458.51188,1315.4296 C 458.16438,1314.8673 457.15688,1314.4072 456.27298,1314.4072 C 454.40138,1314.4072 453.66338,1313.8082 444.99808,1305.2558 C 437.81108,1298.1624 430.99808,1290.3384 430.99808,1289.1783 C 430.99808,1288.7658 429.19868,1285.836 426.99938,1282.6677 C 424.80008,1279.4994 423.00008,1276.5707 422.99938,1276.1595 C 422.99868,1275.7483 421.42308,1273.2195 419.49808,1270.5401 C 417.57308,1267.8606 415.99808,1265.2163 415.99808,1264.6637 C 415.99808,1264.1112 414.85498,1261.6899 413.45778,1259.2832 C 412.06058,1256.8764 410.55828,1254.2322 410.11928,1253.4072 C 409.68028,1252.5822 408.59598,1250.5572 407.70968,1248.9072 C 402.10238,1238.4682 397.99808,1229.771 397.99808,1228.3277 C 397.99808,1227.4061 397.36728,1226.1285 396.59618,1225.4886 C 395.82518,1224.8487 394.90748,1223.1821 394.55678,1221.7851 C 394.20618,1220.3881 392.36668,1215.8838 390.46908,1211.7756 C 388.57148,1207.6674 386.79988,1203.3164 386.53228,1202.1067 C 386.26468,1200.897 385.09748,1197.2245 383.93848,1193.9457 C 381.04108,1185.7485 377.43958,1171.4062 376.01888,1162.4072 C 375.36768,1158.2822 374.47728,1154.2149 374.04018,1153.3687 C 373.24258,1151.8249 372.37958,1147.361 371.43778,1139.9072 C 371.15978,1137.7072 370.43318,1132.6403 369.82308,1128.6474 C 368.57508,1120.4788 370.22448,1098.1331 373.12548,1083.9072 C 373.68628,1081.1572 374.49738,1075.9822 374.92778,1072.4072 C 376.12068,1062.4997 379.05038,1049.2571 380.55858,1046.9553 C 381.30018,1045.8234 382.56648,1042.1996 383.37248,1038.9023 C 384.80228,1033.0534 385.91508,1029.5407 388.59818,1022.4072 C 389.32218,1020.4822 390.43288,1016.8822 391.06648,1014.4072 C 391.69998,1011.9322 392.59858,1009.0072 393.06338,1007.9072 C 395.84568,1001.3225 396.99808,997.96175 396.99808,996.43283 C 396.99808,995.48125 398.95458,990.0237 401.34598,984.30496 C 403.73728,978.58621 406.26538,971.51022 406.96408,968.58052 C 407.66278,965.65082 408.74368,963.07899 409.36628,962.86533 C 409.98878,962.65167 417.69808,962.23306 426.49808,961.93509 C 454.08748,961.00089 464.41978,960.30218 465.64168,959.28804 C 466.29208,958.74826 467.14008,956.01053 467.52598,953.20419 C 468.29838,947.58814 469.60968,944.20519 473.84278,936.90724 C 474.48088,935.80724 475.45938,933.78224 476.01748,932.40724 C 479.11598,924.77196 480.41418,922.42335 481.13668,923.14581 C 481.57938,923.58851 482.35998,926.86594 482.87128,930.42898 C 483.38258,933.99202 484.75958,939.65997 485.93138,943.02443 C 487.10308,946.38888 488.26188,950.18081 488.50648,951.45093 C 489.12478,954.66135 490.91468,955.58207 494.99808,954.79023 C 496.92308,954.41694 510.83798,953.96694 525.91998,953.79022 C 546.80978,953.54544 553.54498,953.1638 554.19448,952.18807 C 554.66338,951.48361 554.81038,948.43224 554.52108,945.40724 C 553.60778,935.8559 553.72608,930.10365 554.97358,923.40724 C 556.31398,916.2117 562.70118,897.70874 564.15488,896.81032 C 564.66388,896.49572 566.40438,893.46383 568.02248,890.07278 C 569.64068,886.68173 573.10958,881.38058 575.73128,878.29245 C 578.35298,875.20432 581.17308,871.67485 581.99808,870.44918 C 582.82308,869.22351 584.17308,867.41021 584.99808,866.41962 C 585.82308,865.42901 588.89868,861.70241 591.83288,858.13827 C 594.76698,854.57413 598.50258,850.67103 600.13418,849.46473 C 601.76938,848.25579 602.97668,846.51652 602.82438,845.58935 C 602.67238,844.6642 602.95028,843.26471 603.44198,842.47938 C 606.61148,837.41704 600.62098,820.90245 593.25898,814.40725 C 584.64088,806.80378 580.09118,804.27768 571.99808,802.60275 C 568.97308,801.9767 562.89808,800.72069 558.49808,799.81161 C 549.82858,798.02041 530.55548,798.23042 508.49808,800.35645 C 498.53438,801.31682 479.53608,805.25848 474.49808,807.41058 C 469.75068,809.43859 460.52268,812.50533 456.36198,813.43776 C 453.88388,813.99309 448.55648,816.01341 444.52328,817.92735 C 440.48998,819.84129 436.87738,821.40725 436.49518,821.40725 C 434.97258,821.40725 409.94268,833.22379 407.99808,834.86067 C 407.17308,835.55512 403.57308,837.64683 399.99808,839.50893 C 391.60578,843.88019 381.96598,849.80136 374.46268,855.1939 C 371.18218,857.55155 367.07248,860.47655 365.33018,861.6939 C 354.65398,869.15298 348.19618,874.70469 346.28538,878.06641 C 345.08458,880.17887 342.45308,883.25724 340.43748,884.90724 C 338.33568,886.62779 335.73278,890.2486 334.33428,893.39715 C 332.99318,896.4166 331.04948,899.7916 330.01498,900.89715 C 328.98048,902.0027 325.79218,907.40724 322.92998,912.90724 C 320.06768,918.40724 317.39918,923.35724 316.99988,923.90724 C 316.60058,924.45724 315.95558,926.25724 315.56658,927.90724 C 315.17768,929.55724 314.03968,932.70724 313.03778,934.90724 C 307.62868,946.78519 306.52968,951.66031 305.03538,970.40724 C 304.44348,977.83224 303.48158,986.83224 302.89778,990.40724 C 300.95648,1002.2961 303.14468,1070.9441 306.51578,1103.9072 C 307.67018,1115.1955 308.31318,1134.2934 308.69908,1168.7591 C 309.28778,1221.3266 308.95178,1226.7036 304.28458,1239.4072 C 300.51718,1249.6615 291.81008,1261.3799 286.76958,1262.9797 C 285.79528,1263.289 284.99808,1263.9617 284.99808,1264.4746 C 284.99808,1265.6547 272.26158,1265.6986 268.39728,1264.5318 C 266.80278,1264.0503 263.02308,1263.0829 259.99808,1262.382 C 254.47959,1261.1034 248.77313,1257.6421 246.02693,1253.9077 C 245.2178,1252.8074 241.20964,1248.419 237.11991,1244.1555 C 233.03019,1239.8921 228.98982,1235.3921 228.14132,1234.1555 C 227.29281,1232.919 225.78847,1231.3192 224.79834,1230.6005 C 223.8082,1229.8818 222.99809,1228.452 222.99809,1227.4231 C 222.99809,1226.3942 221.94639,1224.7251 220.66098,1223.714 C 217.36789,1221.1236 213.44016,1213.6957 212.12782,1207.5765 C 211.51476,1204.7179 210.40574,1200.9229 209.66334,1199.1431 C 208.92093,1197.3634 207.73361,1193.4322 207.02484,1190.4072 C 206.31608,1187.3822 205.30292,1184.3603 204.77339,1183.6918 C 204.24386,1183.0233 204.10188,1180.7524 204.45788,1178.6452 C 205.24124,1174.0086 202.59112,1170.7862 198.78839,1171.7516 C 192.39365,1173.3748 191.10074,1184.3687 195.0068,1203.9072 C 195.55657,1206.6572 196.43023,1211.6072 196.94828,1214.9072 C 198.40642,1224.1957 199.66053,1230.4107 201.28671,1236.4072 C 202.10705,1239.4322 203.53349,1245.704 204.45657,1250.3446 C 205.37965,1254.9851 206.96643,1261.5101 207.98274,1264.8446 C 208.99905,1268.179 210.35307,1273.6072 210.99167,1276.9072 C 212.73713,1285.9269 220.58231,1305.3971 223.48258,1307.9072 C 225.27107,1309.4551 228.47311,1314.8068 228.18438,1315.7655 C 227.85439,1316.8612 232.75073,1323.3584 235.65847,1325.6833 C 236.88024,1326.6601 238.15143,1328.315 238.48332,1329.3607 C 238.81522,1330.4064 240.52932,1332.1978 242.29243,1333.3417 C 244.05554,1334.4855 246.91095,1336.4307 248.63778,1337.6643 C 256.18118,1343.0531 258.76548,1344.1644 266.49808,1345.3447 C 269.24808,1345.7644 272.27998,1346.4462 273.23558,1346.8597 C 274.19118,1347.2732 276.34408,1347.1336 278.01978,1346.5495 C 281.91948,1346.3891 284.50548,1348.2923 289.93068,1348.4072 C 293.65358,1348.4072 298.00428,1348.8087 299.59888,1349.2993 C 301.19348,1349.79 305.19808,1350.718 308.49808,1351.3615 C 311.79808,1352.0051 315.62308,1352.9211 316.99808,1353.3971 C 319.99998,1354.4364 333.29378,1353.9655 344.99808,1352.4053 z " style="fill:#520" id="path2535"/>
    <path d="M 585.99808,1346.7353 C 602.03018,1344.1575 626.42378,1335.3668 636.20358,1328.6427 C 638.56558,1327.0187 644.54808,1323.1342 649.49808,1320.0103 C 661.05698,1312.7158 674.78768,1300.7876 685.69118,1288.5686 C 695.03338,1278.0991 699.66078,1271.448 704.18588,1261.9855 C 705.78458,1258.6424 707.73838,1254.7822 708.52768,1253.4072 C 711.23148,1248.6967 717.99808,1234.0041 717.99808,1232.8437 C 717.99808,1232.2059 719.86928,1227.6909 722.15648,1222.8103 C 724.44358,1217.9297 726.65548,1212.5799 727.07188,1210.9219 C 727.48818,1209.2638 728.79458,1204.5508 729.97478,1200.4485 C 731.27088,1195.9438 732.49448,1187.627 733.06458,1179.4485 C 733.58368,1172.0008 734.49458,1158.7072 735.08888,1149.9072 C 735.68318,1141.1072 736.23268,1120.4072 736.30988,1103.9072 L 736.45038,1073.9072 L 733.63858,1063.9072 C 732.09208,1058.4072 729.95458,1050.1515 728.88848,1045.5612 C 727.82238,1040.9709 726.30258,1035.9631 725.51118,1034.4327 C 723.26918,1030.0972 718.87858,1018.1811 718.49748,1015.3978 C 718.30858,1014.0176 717.45038,1010.8676 716.59058,1008.3978 C 715.73068,1005.928 715.02058,1002.7248 715.01258,1001.2797 C 715.00458,999.83453 714.32308,998.09193 713.49808,997.40724 C 712.67308,996.72255 711.99808,995.63461 711.99808,994.98959 C 711.99808,994.34458 709.55658,989.11218 706.57258,983.36204 C 695.76118,962.52847 691.64728,955.61058 686.87238,950.23367 C 685.56648,948.7632 683.40798,946.0632 682.07568,944.23367 C 680.74338,942.40413 677.66058,939.41668 675.22498,937.59489 L 670.79658,934.28254 L 660.14728,934.8285 C 654.29018,935.12878 641.77218,935.64345 632.32938,935.97221 C 615.72318,936.55038 615.09078,936.49998 613.02428,934.43348 C 611.09328,932.50241 610.95118,931.60526 611.54648,925.10212 C 611.90868,921.14494 612.64898,916.10724 613.19148,913.90724 C 618.28208,893.26415 616.30918,869.62626 608.55478,858.35334 C 606.69658,855.65206 605.00218,852.91959 604.78938,852.28119 C 603.94838,849.75809 599.10228,854.23631 588.81788,867.04037 C 586.99198,869.31359 584.62748,872.37777 583.56348,873.84966 C 582.49948,875.32155 580.55138,877.73665 579.23448,879.21653 C 575.96638,882.88898 572.39018,888.51111 567.71908,897.31988 C 559.58638,912.65649 556.58038,925.56353 557.43928,941.45835 C 558.28208,957.05536 560.86978,955.78074 526.83028,956.53521 C 511.24758,956.8806 496.92308,957.45634 494.99808,957.81464 C 488.75278,958.97707 487.09168,957.18363 483.27448,945.15724 C 481.39788,939.24474 479.55548,934.41863 479.18028,934.43255 C 478.11818,934.47195 472.24758,947.39133 471.01258,952.40724 C 469.18738,959.82005 467.85838,962.4075 465.62148,962.90373 C 463.06048,963.47186 449.14728,964.22773 427.39128,964.98067 L 411.28438,965.53811 L 408.53488,973.72267 C 407.02268,978.22419 404.48328,984.99186 402.89178,988.76195 C 401.30028,992.53204 399.99808,996.43988 399.99808,997.44604 C 399.99808,998.45219 398.94338,1001.8926 397.65428,1005.0913 C 396.36518,1008.2901 394.05638,1014.9572 392.52358,1019.9072 C 390.99078,1024.8572 389.29728,1030.0322 388.76038,1031.4072 C 388.22338,1032.7822 387.14428,1036.3417 386.36218,1039.3171 C 385.58008,1042.2924 384.28628,1046.1174 383.48688,1047.8171 C 381.61768,1051.7914 377.99808,1069.4423 377.99808,1074.5831 C 377.99808,1076.7587 377.55038,1079.3754 377.00308,1080.3979 C 376.45578,1081.4205 375.55968,1086.2284 375.01158,1091.0822 C 374.46358,1095.936 373.49738,1104.5153 372.86458,1110.1474 C 371.98938,1117.9364 371.99558,1122.1254 372.89048,1127.6474 C 373.53758,1131.6403 374.46248,1138.1423 374.94578,1142.0963 C 375.42918,1146.0503 376.31718,1150.7753 376.91928,1152.5963 C 377.52138,1154.4173 378.67558,1159.5072 379.48418,1163.9072 C 381.41508,1174.4141 386.63928,1193.8126 388.51468,1197.4392 C 389.33058,1199.017 389.99808,1201.0202 389.99808,1201.8908 C 389.99808,1202.7614 391.06168,1205.5962 392.36158,1208.1904 C 393.66148,1210.7847 395.30198,1214.7072 396.00698,1216.9072 C 396.71208,1219.1072 398.12348,1221.9804 399.14348,1223.2921 C 400.16358,1224.6037 400.99808,1226.3363 400.99808,1227.1421 C 400.99808,1229.5757 417.02238,1261.0627 423.06098,1270.4948 C 424.67638,1273.0179 425.99808,1275.3936 425.99808,1275.7742 C 425.99808,1276.5108 430.65278,1282.5492 438.00548,1291.3509 C 443.46718,1297.8891 462.79958,1314.6344 468.99808,1318.1961 C 471.47308,1319.6183 474.88378,1321.9664 476.57738,1323.4141 C 480.84578,1327.0628 497.58698,1335.4736 509.12478,1339.7661 C 533.26878,1348.7485 558.97978,1351.0794 585.99808,1346.7353 z " style="fill:url(#radialGradient3451);fill-opacity:1" id="path2533"/>
    <path d="M 544.99808,1268.8147 C 540.32608,1267.9517 522.01108,1258.0326 518.03458,1254.2116 C 515.85698,1252.1192 513.64428,1250.4072 513.11728,1250.4072 C 512.59038,1250.4072 509.69738,1248.1572 506.68848,1245.4072 C 503.67958,1242.6572 500.71828,1240.4072 500.10788,1240.4072 C 499.49748,1240.4072 498.99808,1239.9875 498.99808,1239.4746 C 498.99808,1238.9617 498.18218,1238.283 497.18488,1237.9665 C 495.58888,1237.4599 488.99808,1229.2653 488.99808,1227.7875 C 488.99808,1227.4788 487.08408,1224.9044 484.74478,1222.0667 C 482.40548,1219.229 479.67618,1215.2968 478.67958,1213.3285 C 477.68298,1211.3602 473.98778,1206.6352 470.46798,1202.8285 C 466.94818,1199.0218 464.05248,1195.1197 464.03318,1194.1572 C 464.01388,1193.1947 463.59088,1192.4072 463.09308,1192.4072 C 462.59538,1192.4072 460.94688,1190.2697 459.42968,1187.6572 C 457.91258,1185.0447 456.34578,1182.6822 455.94798,1182.4072 C 455.55018,1182.1322 453.99198,1179.6572 452.48538,1176.9072 C 450.97868,1174.1572 448.95858,1171.0072 447.99618,1169.9072 C 447.03378,1168.8072 445.42628,1166.1072 444.42398,1163.9072 C 443.42168,1161.7072 441.82878,1158.7822 440.88428,1157.4072 C 438.29238,1153.6342 437.56848,1150.4072 439.31408,1150.4072 C 440.11198,1150.4072 441.02888,1151.1947 441.35158,1152.1572 C 441.67428,1153.1197 443.65528,1156.8322 445.75368,1160.4072 C 447.85208,1163.9822 450.45308,1168.4324 451.53358,1170.2966 C 452.61408,1172.1607 456.31058,1177.9245 459.74808,1183.1049 C 463.18558,1188.2853 465.99808,1192.7415 465.99808,1193.0075 C 465.99808,1193.4369 476.76748,1206.3824 480.54278,1210.4911 C 481.34318,1211.3622 481.99808,1212.5593 481.99808,1213.1513 C 481.99808,1213.7433 483.70458,1216.4055 485.79038,1219.0674 C 487.87618,1221.7293 490.57908,1225.5401 491.79698,1227.5359 C 496.27098,1234.8677 522.46498,1255.5183 536.47968,1262.7625 L 544.49808,1266.9072 L 559.49808,1266.8704 C 570.11758,1266.8443 576.39628,1266.3474 580.99808,1265.1687 C 584.57308,1264.253 591.41918,1262.5612 596.21168,1261.4093 C 613.88758,1257.1605 635.70098,1243.8064 639.53478,1234.8869 C 640.24878,1233.2257 641.77008,1231.0185 642.91548,1229.9819 C 644.06088,1228.9453 644.99808,1227.7368 644.99808,1227.2962 C 644.99808,1226.8557 646.31288,1224.2653 647.91988,1221.5397 C 649.52698,1218.8142 650.60288,1216.3453 650.31088,1216.0533 C 650.01878,1215.7613 650.72898,1214.1895 651.88898,1212.5604 C 653.04898,1210.9313 653.99808,1209.2823 653.99808,1208.8958 C 653.99808,1207.5674 660.06368,1195.4847 661.03058,1194.8871 C 661.56268,1194.5582 661.99808,1193.5835 661.99808,1192.7209 C 661.99808,1191.8584 663.38728,1188.1724 665.08518,1184.5299 C 666.78308,1180.8874 668.80198,1176.5572 669.57158,1174.9072 C 670.34128,1173.2572 671.45028,1169.4322 672.03598,1166.4072 C 673.35208,1159.611 674.62908,1156.4072 676.02198,1156.4072 C 677.12278,1156.4072 676.56648,1162.0528 675.08578,1165.9072 C 674.66328,1167.0072 673.28688,1171.0572 672.02718,1174.9072 C 670.76758,1178.7572 668.48828,1184.3822 666.96208,1187.4072 C 665.43588,1190.4322 662.74778,1196.0572 660.98838,1199.9072 C 647.37368,1229.6995 646.62708,1231.0092 637.49808,1241.1114 C 630.96528,1248.3407 624.65328,1252.7581 611.99808,1258.9575 C 606.44288,1261.6788 603.98338,1262.4322 593.99808,1264.471 C 590.97308,1265.0887 586.24808,1266.2606 583.49808,1267.0753 C 578.57528,1268.5337 550.37458,1269.8078 544.99808,1268.8147 z " style="fill:black" id="path2531"/>
    <path d="M 688.24808,1161.0473 C 687.01058,1160.4344 685.99808,1159.3502 685.99808,1158.6379 C 685.99808,1157.9255 685.14708,1157.0198 684.10698,1156.625 C 680.81188,1155.3743 671.09608,1147.9594 671.04608,1146.6572 C 670.96868,1144.6416 672.55698,1145.1874 677.29618,1148.805 C 679.74438,1150.6738 682.63148,1152.6759 683.71198,1153.2541 C 686.98478,1155.0056 691.99808,1159.7707 691.99808,1161.1299 C 691.99808,1162.6037 691.36248,1162.5897 688.24808,1161.0473 z " style="fill:black" id="path2529"/>
    <path d="M 429.17478,1149.7381 C 429.48898,1148.1159 433.70548,1145.0036 437.24808,1143.7789 C 438.21058,1143.4462 438.99808,1142.831 438.99808,1142.4119 C 438.99808,1141.9928 440.34808,1141.0907 441.99808,1140.4072 C 443.64808,1139.7238 444.99808,1138.8414 444.99808,1138.4464 C 444.99808,1137.4367 449.70388,1135.4072 452.04518,1135.4072 C 453.11928,1135.4072 453.99808,1135.8572 453.99808,1136.4072 C 453.99808,1136.9572 453.13258,1137.4072 452.07478,1137.4072 C 451.01698,1137.4072 448.87948,1138.4711 447.32478,1139.7715 C 445.77008,1141.0718 441.94038,1143.7666 438.81428,1145.7599 C 435.68818,1147.7531 432.84918,1149.8392 432.50528,1150.3956 C 431.46628,1152.0767 428.82288,1151.5549 429.17478,1149.7381 z " style="fill:black" id="path2527"/>
    <path d="M 677.00358,1143.1572 C 671.80308,1137.6597 671.12188,1136.4072 673.33238,1136.4072 C 674.88338,1136.4072 683.99808,1145.746 683.99808,1147.335 C 683.99808,1149.5491 681.81878,1148.2475 677.00358,1143.1572 z " style="fill:black" id="path2525"/>
    <path d="M 431.58068,1139.5409 C 431.28618,1139.0644 431.82218,1137.9897 432.77168,1137.1528 C 435.03388,1135.1587 444.04278,1131.1185 444.71898,1131.7947 C 445.98698,1133.0628 443.89558,1135.1213 440.22078,1136.2223 C 438.02878,1136.8791 435.67688,1138.0893 434.99428,1138.9118 C 433.59558,1140.5971 432.37278,1140.8225 431.58068,1139.5409 z " style="fill:black" id="path2523"/>
    <path d="M 574.25718,1024.4382 C 569.65308,1022.3483 568.07638,1019.7337 566.05768,1010.8413 C 564.71908,1004.9449 565.65548,1001.4481 569.71158,997.19603 C 574.77108,991.89223 585.43168,992.84148 589.43568,998.95232 C 590.29068,1000.2573 591.51498,1004.3845 592.15618,1008.1237 C 593.19208,1014.1646 593.11738,1015.3536 591.48588,1018.7916 C 590.18868,1021.5253 588.45358,1023.2043 585.57388,1024.5121 C 580.48148,1026.8251 579.50118,1026.8186 574.25718,1024.4382 z " style="fill:black" id="path2521"/>
    <path d="M 535.49808,1024.694 C 532.50668,1023.9742 528.17048,1019.4858 527.09148,1015.9923 C 525.72148,1011.557 526.38208,1002.4434 528.34678,998.67417 C 532.56568,990.58012 545.38858,990.25187 550.53728,998.10613 C 553.19358,1002.1583 553.49518,1012.4951 551.11408,1017.878 C 548.48138,1023.8296 542.59088,1026.4007 535.49808,1024.694 z " style="fill:black" id="path2519"/>
    <path d="M 614.69928,1002.7751 C 614.31358,1002.3895 613.99808,1000.6005 613.99808,998.79959 C 613.99808,996.99872 613.54808,995.24716 612.99808,994.90724 C 612.44808,994.56732 611.99808,993.27904 611.99808,992.04439 C 611.99808,989.64983 607.15448,984.58568 602.99808,982.63454 C 601.62308,981.98908 598.69808,981.33638 596.49808,981.1841 C 593.25698,980.95977 592.49808,980.52776 592.49808,978.90724 C 592.49808,977.16517 593.26678,976.86775 598.45878,976.60105 C 607.43438,976.13999 612.27128,979.17843 616.57938,987.98394 C 619.51988,993.99408 619.73068,1002.6556 616.94928,1003.1828 C 616.09748,1003.3443 615.08498,1003.1608 614.69928,1002.7751 z " style="fill:black" id="path2517"/>
    <path d="M 498.33118,995.83289 C 497.40458,993.41805 499.98098,986.78762 502.89188,984.09616 C 504.32528,982.77079 507.76258,980.4804 510.53038,979.00641 C 515.12848,976.5576 516.37928,976.35148 525.03038,976.61683 C 533.73458,976.88382 534.49808,977.06852 534.49808,978.90724 C 534.49808,980.71741 533.73878,980.93363 526.49808,981.18522 C 520.38478,981.39765 517.31888,982.04833 513.49808,983.94426 C 507.59388,986.87397 504.99808,988.75811 504.99808,990.11384 C 504.99808,990.65621 504.29018,992.5191 503.42488,994.2536 C 501.73588,997.63922 499.31268,998.39054 498.33118,995.83289 z " style="fill:black" id="path2511"/>
  </g>
  <metadata>
    <rdf:RDF>
      <cc:Work>
        <dc:format>image/svg+xml</dc:format>
        <dc:type rdf:resource="http://purl.org/dc/dcmitype/StillImage"/>
        <cc:license rdf:resource="http://creativecommons.org/licenses/publicdomain/"/>
        <dc:publisher>
          <cc:Agent rdf:about="http://openclipart.org/">
            <dc:title>Open Clip Art Library</dc:title>
          </cc:Agent>
        </dc:publisher>
        <dc:title>Ladyface6 Color</dc:title>
        <dc:date>2006-10-09T20:37:11</dc:date>
        <dc:description>This is a vectorized clip art request fill from the worldlabel.com gift.</dc:description>
        <dc:source>http://openclipart.org/detail/467/ladyface6-color-by-rejon</dc:source>
        <dc:creator>
          <cc:Agent>
            <dc:title>rejon</dc:title>
          </cc:Agent>
        </dc:creator>
        <dc:subject>
          <rdf:Bag>
            <rdf:li>cartoon</rdf:li>
            <rdf:li>clip art</rdf:li>
            <rdf:li>clipart</rdf:li>
            <rdf:li>colour</rdf:li>
            <rdf:li>contour</rdf:li>
            <rdf:li>face</rdf:li>
            <rdf:li>head</rdf:li>
            <rdf:li>lady</rdf:li>
            <rdf:li>people</rdf:li>
            <rdf:li>person</rdf:li>
            <rdf:li>remix</rdf:li>
            <rdf:li>smiling</rdf:li>
            <rdf:li>vectorized</rdf:li>
            <rdf:li>woman</rdf:li>
            <rdf:li>worldlabel</rdf:li>
          </rdf:Bag>
        </dc:subject>
      </cc:Work>
      <cc:License rdf:about="http://creativecommons.org/licenses/publicdomain/">
        <cc:permits rdf:resource="http://creativecommons.org/ns#Reproduction"/>
        <cc:permits rdf:resource="http://creativecommons.org/ns#Distribution"/>
        <cc:permits rdf:resource="http://creativecommons.org/ns#DerivativeWorks"/>
      </cc:License>
    </rdf:RDF>
  </metadata>
</svg>
